<svg xmlns="http://www.w3.org/2000/svg" style="display: none;">
    <symbol id="seat" viewBox="0 0 511.748 511.748">
        <path d="M388.961,140.501L388.961,140.501c-89.25-16.657-179.055-16.623-266.172,0
		c-15.249,2.406-29.047-9.387-29.047-24.823V55.022c0-16.93,12.322-31.343,29.047-33.988c87.467-16.631,177.28-16.657,266.172,0
		c16.725,2.645,29.047,17.058,29.047,33.988v60.655C418.009,131.114,404.219,142.907,388.961,140.501"/>
        <path d="M409.474,422.818c-15.061-6.588-25.6-21.581-25.6-39.066v-179.2c0-6.076,1.314-11.836,3.601-17.067
		H124.273c2.287,5.231,3.601,10.991,3.601,17.067v179.2c0,17.485-10.539,32.478-25.6,39.066v54.801
		c52.036,16.708,103.083,25.446,153.6,25.6c50.526-0.154,101.564-8.892,153.6-25.6V422.818z"/>
        <path d="M230.274,128.601v58.88h51.2v-58.846C264.373,128.004,247.298,128.004,230.274,128.601"/>
        <path d="M426.54,426.418L426.54,426.418c23.569,0,42.667-19.098,42.667-42.667v-179.2
		c0-23.569-19.098-42.667-42.667-42.667c-23.569,0-42.667,19.098-42.667,42.667v179.2
		C383.874,407.32,402.971,426.418,426.54,426.418"/>
        <path d="M85.207,426.418L85.207,426.418c-23.561,0-42.667-19.098-42.667-42.667v-179.2
		c0-23.569,19.106-42.667,42.667-42.667s42.667,19.098,42.667,42.667v179.2C127.874,407.32,108.768,426.418,85.207,426.418"/>
        <path style="fill:#000000;" d="M85.207,170.418c-18.825,0-34.133,15.309-34.133,34.133v179.2c0,18.825,15.309,34.133,34.133,34.133
			s34.133-15.309,34.133-34.133v-179.2C119.34,185.727,104.032,170.418,85.207,170.418 M85.207,434.951
			c-28.237,0-51.2-22.963-51.2-51.2v-179.2c0-28.237,22.963-51.2,51.2-51.2s51.2,22.963,51.2,51.2v179.2
			C136.407,411.988,113.444,434.951,85.207,434.951"/>
        <path style="fill:#000000;" d="M426.54,170.418c-18.825,0-34.133,15.309-34.133,34.133v179.2c0,18.825,15.309,34.133,34.133,34.133
			s34.133-15.309,34.133-34.133v-179.2C460.674,185.727,445.365,170.418,426.54,170.418 M426.54,434.951
			c-28.237,0-51.2-22.963-51.2-51.2v-179.2c0-28.237,22.963-51.2,51.2-51.2s51.2,22.963,51.2,51.2v179.2
			C477.741,411.988,454.777,434.951,426.54,434.951"/>
        <path style="fill:#000000;" d="M255.336,17.068c-43.938,0-87.671,4.113-130.953,12.348c-12.919,2.048-22.11,12.791-22.11,25.609v60.655
			c0,4.855,2.125,9.455,5.82,12.621c3.695,3.149,8.542,4.506,13.363,3.78c88.055-16.819,178.637-16.828,268.945,0.009
			c4.796,0.777,9.591-0.657,13.252-3.789c3.703-3.157,5.82-7.757,5.82-12.621V55.024c0-12.817-9.19-23.561-21.845-25.566
			C343.528,21.198,299.334,17.068,255.336,17.068 M392.894,149.343c-1.749,0-3.507-0.137-5.265-0.418
			c-0.077-0.009-0.154-0.026-0.23-0.034c-88.235-16.469-176.725-16.478-263.014-0.009c-10.018,1.596-19.891-1.203-27.383-7.603
			c-7.492-6.409-11.793-15.744-11.793-25.6V55.024c0-21.265,15.249-39.1,36.25-42.411C209.905-4.206,300.529-4.214,390.53,12.647
			c20.77,3.277,36.011,21.111,36.011,42.377v60.655c0,9.856-4.301,19.191-11.793,25.6
			C408.595,146.518,400.855,149.343,392.894,149.343"/>
        <path style="fill:#000000;" d="M238.807,178.951h34.133v-42.044c-11.315-0.299-22.733-0.29-34.133-0.026V178.951z M281.474,196.018h-51.2
			c-4.71,0-8.533-3.814-8.533-8.533v-58.88c0-4.599,3.644-8.371,8.235-8.525c17.289-0.623,34.731-0.623,51.814,0.026
			c4.591,0.171,8.218,3.934,8.218,8.533v58.846C290.007,192.203,286.184,196.018,281.474,196.018L281.474,196.018z"/>
        <path style="fill:#000000;" d="M110.807,471.359c49.579,15.343,98.355,23.185,145.092,23.322c46.686-0.137,95.462-7.979,145.041-23.322v-43.307
			c-15.718-9.088-25.6-25.907-25.6-44.305v-179.2c0-2.876,0.239-5.717,0.717-8.533H135.69c0.478,2.816,0.717,5.658,0.717,8.533
			v179.2c0,18.398-9.882,35.217-25.6,44.305V471.359z M255.899,511.748c-50.398-0.145-102.955-8.9-156.237-26.001
			c-3.524-1.135-5.922-4.42-5.922-8.132v-54.793c0-3.396,2.005-6.46,5.111-7.817c12.45-5.453,20.489-17.724,20.489-31.258v-179.2
			c0-4.668-0.973-9.267-2.884-13.645c-1.152-2.637-0.896-5.675,0.674-8.09c1.579-2.415,4.267-3.866,7.142-3.866h263.202
			c2.876,0,5.564,1.451,7.142,3.866c1.57,2.415,1.826,5.453,0.674,8.09c-1.911,4.378-2.884,8.977-2.884,13.645v179.2
			c0,13.534,8.038,25.805,20.489,31.258c3.106,1.357,5.111,4.42,5.111,7.817v54.793c0,3.712-2.389,6.997-5.922,8.132
			C358.803,502.847,306.255,511.603,255.899,511.748L255.899,511.748z"/>
    </symbol>
</svg>